PathFileType	4	(X/Y/Z)	22_1_39_p0_0-183.trc
DataRate	CameraRate	NumFrames	NumMarkers	Units	OrigDataRate	OrigDataStartFrame	OrigNumFrames
57.0	57.0	4	27	m	57.0	0	184
Frame#	Time	RHip			RKnee			RAnkle			RBigToe			RSmallToe			RHeel			LHip			LKnee			LAnkle			LBigToe			LSmallToe			LHeel			Neck			Head			Nose			RShoulder			RElbow			RWrist			RThumb			RIndex			RPinky			LShoulder			LElbow			LWrist			LThumb			LIndex			LPinky			
		X1	Y1	Z1	X2	Y2	Z2	X3	Y3	Z3	X4	Y4	Z4	X5	Y5	Z5	X6	Y6	Z6	X7	Y7	Z7	X8	Y8	Z8	X9	Y9	Z9	X10	Y10	Z10	X11	Y11	Z11	X12	Y12	Z12	X13	Y13	Z13	X14	Y14	Z14	X15	Y15	Z15	X16	Y16	Z16	X17	Y17	Z17	X18	Y18	Z18	X19	Y19	Z19	X20	Y20	Z20	X21	Y21	Z21	X22	Y22	Z22	X23	Y23	Z23	X24	Y24	Z24	X25	Y25	Z25	X26	Y26	Z26	X27	Y27	Z27	
0	0.0	0.2543341663411548	0.644332356453905	0.913410257293136	0.26723526273505355	0.7668658534294498	1.3751775149898817	0.2669364050998044	0.9244516267724284	1.8180018499095845	0.22466881260631064	0.65313607141352	1.859385001023672	0.3005103124607147	0.7316978925810709	1.877597208912914	0.27802542175014383	1.009119447673358	1.8758728543890142	0.028547222812456623	0.6602374690771635	0.9328137825136908	0.06152868944921095	0.7693497550383315	1.3905358365373972	0.09417996715825509	0.9003744502941476	1.8095104781542746	0.10120252836442128	0.7141835605996265	1.8768560542121826	0.050077682262279814	0.7617577002005588	1.8815990794709407	0.1205981705336083	1.0419099524184188	1.8877303446905287	0.09350215867802321	0.4993000046822133	0.37148488998421736	0.061847302054864724	0.43289849277756104	0.1451064220626655	0.06047854868624992	0.3382212544913774	0.27940160551174836	0.2547312898258614	0.4626396035188762	0.44274316183645285	0.3305485583740495	0.5291627857662433	0.7081479201587229	0.1653237263791944	0.3769655629550559	0.8838464042114323	0.048317969390353425	0.3771381928583918	0.9452733130200681	0.05095524905847777	0.37933322082541865	0.956050393856919	0.08714700771530648	0.3930621250358095	0.9750278834993474	-0.0670764970851633	0.48824655676768774	0.45351259529277543	-0.10250579216129918	0.5243779488198697	0.6959223098533166	0.029573354836105008	0.40064053307355724	0.880629129643741	0.09961506124555256	0.39094382600093447	0.9442001343745449	0.11173282737796339	0.4067484322952671	0.9639388322660783	0.09407800491224838	0.4227833062686659	0.970313323894673
1	0.017543859649122806	0.25517849354688965	0.6459032905222101	0.9176013814816564	0.26671563698723283	0.7683223767347769	1.379616791612876	0.2731622357800642	0.9391280841861019	1.8227424156252392	0.22493441236372494	0.650849743342691	1.8585259160650422	0.30043023537190494	0.7298415789312088	1.8772148491210747	0.2765126000288753	1.0050110791089666	1.86981520305343	0.026043973146978323	0.6775872261191356	0.9378646428727583	0.06112391331323255	0.769325086397251	1.3867499445974256	0.09336247767825431	0.9019427233533398	1.8147815533575269	0.10228678014922464	0.7159528260700012	1.8810810567897152	0.04467747867551918	0.7606977634685451	1.8765655932303906	0.12766024948591287	1.0259216511287779	1.8916143013234212	0.09291928810594938	0.4974869653260373	0.36794063667686666	0.06182343195898516	0.4326616559743368	0.1451954806625124	0.06039903800716405	0.3382342259983374	0.27934702755606067	0.2538479904093928	0.4607979036466309	0.43934230514531036	0.33618454845402646	0.5416167453336981	0.707519440642093	0.1656301879250671	0.37713022011630565	0.883888063450391	0.051558940709718996	0.37609791358467287	0.9418792512960152	0.0543756913899946	0.37864897415490545	0.955770376924204	0.08685056240990831	0.3937068467899921	0.9709977906530294	-0.06296138811134437	0.48875275595785383	0.44969407533329253	-0.10591400180639961	0.5377908120544865	0.6925408543322414	0.03114944553727308	0.42538812551627336	0.8818224924367248	0.09821726713653349	0.3809298828961175	0.9436878498590473	0.10726050789230974	0.39652351262852964	0.963274501046915	0.09858490439166012	0.43391338865275375	0.9711036120678966
2	0.03508771929824561	0.2551662170777359	0.6457211495677954	0.9175725959865109	0.26667838353666923	0.768337319912221	1.379638925610799	0.26741360521815016	0.9229854180308206	1.822174827296677	0.22402523202354555	0.6509189965113082	1.8588903078261225	0.30140828310355416	0.7131921164937981	1.871343036093772	0.27646079964799314	1.0056688304081816	1.8699320042354497	0.02480630559894223	0.6610217388047288	0.9329583489520881	0.061157095828962	0.7688361065703584	1.3865907608873456	0.0941612856738431	0.9000767025432164	1.8093530305294008	0.10787212706579304	0.7115370456510279	1.8759607940867742	0.049971969383283486	0.7616189493757449	1.881616630777705	0.12811506175866427	1.0273428044076027	1.892048704745246	0.09299794752969703	0.49741652734860325	0.3679398504206856	0.06178781600510071	0.43259983253540135	0.14519416971527935	0.060345955582519754	0.3381812064088155	0.2793544399832943	0.2485047316352799	0.449576653278576	0.4407556406161448	0.33611973967168823	0.5412736154711909	0.7074781984810823	0.1701011409906046	0.38776816570570993	0.8841780703338625	0.05300437500982828	0.3778935565218099	0.9489830718176058	0.05471847494802166	0.3796546239317561	0.9558948830308298	0.08909743784262025	0.4182992785655438	0.9728331491703299	-0.0631083504414482	0.48859221731493363	0.4461928795204634	-0.10992697596888786	0.5243539493730992	0.6932277899918499	0.03407494715485853	0.4119428337873183	0.8778016136094672	0.10334646055612257	0.3924232085686577	0.9443327935765805	0.11249966709753477	0.408917279931634	0.9669963382884846	0.09868279814807725	0.434514448422163	0.971121525534205
3	0.05263157894736842	0.2552987958071748	0.6459243839215435	0.9175263764540443	0.26068023642058974	0.7539739531087072	1.3771254599162444	0.2675493329349197	0.9232871837682393	1.8222756219590672	0.22423309194842928	0.6516070556480488	1.8589595104075376	0.29713586682216664	0.7141348739197544	1.8714099455632747	0.27625491473514213	1.0053084576868263	1.8699400035303106	0.024780079252911702	0.6609506055561283	0.9328528624876555	0.06120632241258105	0.7689839540899908	1.3865372203628104	0.09349017686210667	0.9019137212785381	1.8146422692210828	0.10332204445764637	0.6974898050315788	1.8707918512644546	0.05272085416642798	0.7446910735603812	1.8754744978614366	0.12980058498682656	1.0309699912293226	1.893623628284249	0.09703830279965835	0.4975649943320973	0.36761915410813767	0.06181631688586545	0.43263215793974596	0.14518562631795304	0.06031748172565192	0.33820478681844657	0.2793443673792822	0.25384799593209745	0.46095089942140627	0.439250506713597	0.33055656317976934	0.5290328257695252	0.7080222375871841	0.16551513405498322	0.3770055132852225	0.8838965943118252	0.058126461061891385	0.3630724231229525	0.9506543757643239	0.054230677256684526	0.37676807156954556	0.9585999536862599	0.09427340682123551	0.4323711245636971	0.9776162637777881	-0.06303700160475187	0.4887083500607045	0.4461273427392962	-0.10251519977571096	0.5245987845260756	0.6928618190455715	0.04258946726124887	0.42521587587175996	0.881141834985883	0.09970193252467677	0.38139417149445715	0.9472868346327951	0.10975041666631472	0.39081052893437773	0.968977274198328	0.0989529423126989	0.43512907749809715	0.971174765772922
